<svg width="18" height="18" viewBox="0 0 18 18" fill="none" xmlns="http://www.w3.org/2000/svg">
<g opacity="0.2" clip-path="url(#clip0_59_359)">
<path d="M18 9.05469C18 4.08412 13.9706 0.0546875 9 0.0546875C4.02943 0.0546875 0 4.08412 0 9.05469C0 13.5468 3.29119 17.2702 7.59375 17.9454V11.6562H5.30859V9.05469H7.59375V7.07188C7.59375 4.81625 8.93739 3.57031 10.9932 3.57031C11.9779 3.57031 13.0078 3.74609 13.0078 3.74609V5.96094H11.8729C10.7549 5.96094 10.4062 6.65468 10.4062 7.36641V9.05469H12.9023L12.5033 11.6562H10.4062V17.9454C14.7088 17.2702 18 13.5468 18 9.05469Z" fill="#0D0D0D"/>
</g>
<defs>
<clipPath id="clip0_59_359">
<rect width="18" height="18" fill="white"/>
</clipPath>
</defs>
</svg>
