<svg width="18" height="18" viewBox="0 0 18 18" fill="none" xmlns="http://www.w3.org/2000/svg">
<g opacity="0.2" clip-path="url(#clip0_59_363)">
<path fill-rule="evenodd" clip-rule="evenodd" d="M9 0C13.9672 0 18 4.03277 18 9C18 13.9672 13.9672 18 9 18C4.03277 18 0 13.9672 0 9C0 4.03277 4.03277 0 9 0ZM9 3.375C7.47236 3.375 7.28079 3.38147 6.68081 3.40886C6.0821 3.43617 5.6732 3.53127 5.31538 3.67031C4.9455 3.81407 4.6318 4.00641 4.31909 4.31912C4.00637 4.63184 3.81403 4.94554 3.67028 5.31541C3.53123 5.6732 3.43617 6.0821 3.40882 6.68081C3.38147 7.28079 3.375 7.47236 3.375 9C3.375 10.5276 3.38147 10.7192 3.40882 11.3192C3.43617 11.9179 3.53123 12.3268 3.67028 12.6846C3.81403 13.0545 4.00637 13.3682 4.31909 13.6809C4.6318 13.9936 4.9455 14.186 5.31538 14.3297C5.6732 14.4687 6.0821 14.5638 6.68081 14.5911C7.28079 14.6185 7.47236 14.625 9 14.625C10.5276 14.625 10.7192 14.6185 11.3192 14.5911C11.9179 14.5638 12.3268 14.4687 12.6846 14.3297C13.0545 14.186 13.3682 13.9936 13.6809 13.6809C13.9936 13.3682 14.186 13.0545 14.3297 12.6846C14.4687 12.3268 14.5638 11.9179 14.5911 11.3192C14.6185 10.7192 14.625 10.5276 14.625 9C14.625 7.47236 14.6185 7.28079 14.5911 6.68081C14.5638 6.0821 14.4687 5.6732 14.3297 5.31541C14.186 4.94554 13.9936 4.63184 13.6809 4.31912C13.3682 4.00641 13.0545 3.81407 12.6846 3.67031C12.3268 3.53127 11.9179 3.43617 11.3192 3.40886C10.7192 3.38147 10.5276 3.375 9 3.375ZM9 4.38852C10.5019 4.38852 10.6798 4.39425 11.273 4.42132C11.8214 4.44635 12.1192 4.53797 12.3174 4.615C12.58 4.71702 12.7674 4.83894 12.9642 5.03578C13.1611 5.23259 13.283 5.42 13.385 5.68255C13.462 5.88076 13.5537 6.17857 13.5787 6.72701C13.6058 7.32016 13.6115 7.49805 13.6115 9C13.6115 10.5019 13.6058 10.6798 13.5787 11.273C13.5537 11.8214 13.462 12.1192 13.385 12.3174C13.283 12.58 13.1611 12.7674 12.9642 12.9642C12.7674 13.1611 12.58 13.283 12.3174 13.385C12.1192 13.462 11.8214 13.5537 11.273 13.5787C10.6799 13.6058 10.5021 13.6115 9 13.6115C7.49795 13.6115 7.32009 13.6058 6.72701 13.5787C6.17857 13.5537 5.88076 13.462 5.68255 13.385C5.41997 13.283 5.23259 13.1611 5.03575 12.9642C4.83891 12.7674 4.71702 12.58 4.615 12.3174C4.53797 12.1192 4.44632 11.8214 4.42129 11.273C4.39422 10.6798 4.38852 10.5019 4.38852 9C4.38852 7.49805 4.39422 7.32016 4.42129 6.72701C4.44632 6.17857 4.53797 5.88076 4.615 5.68255C4.71702 5.42 4.83891 5.23259 5.03575 5.03578C5.23259 4.83894 5.41997 4.71702 5.68255 4.615C5.88076 4.53797 6.17857 4.44635 6.72701 4.42132C7.32016 4.39425 7.49805 4.38852 9 4.38852ZM9 6.11149C7.40472 6.11149 6.11149 7.40472 6.11149 9C6.11149 10.5953 7.40472 11.8885 9 11.8885C10.5953 11.8885 11.8885 10.5953 11.8885 9C11.8885 7.40472 10.5953 6.11149 9 6.11149ZM9 10.875C7.96447 10.875 7.12501 10.0355 7.12501 9C7.12501 7.96447 7.96447 7.12501 9 7.12501C10.0355 7.12501 10.875 7.96447 10.875 9C10.875 10.0355 10.0355 10.875 9 10.875ZM12.6777 5.99738C12.6777 6.37017 12.3754 6.67234 12.0026 6.67234C11.6299 6.67234 11.3277 6.37017 11.3277 5.99738C11.3277 5.62458 11.6299 5.32237 12.0026 5.32237C12.3754 5.32237 12.6777 5.62458 12.6777 5.99738Z" fill="#0D0D0D"/>
</g>
<defs>
<clipPath id="clip0_59_363">
<rect width="18" height="18" fill="white"/>
</clipPath>
</defs>
</svg>
