<svg width="18" height="18" viewBox="0 0 18 18" fill="none" xmlns="http://www.w3.org/2000/svg">
<g opacity="0.2" clip-path="url(#clip0_59_357)">
<path fill-rule="evenodd" clip-rule="evenodd" d="M9 0C13.9672 0 18 4.03277 18 9C18 13.9672 13.9672 18 9 18C4.03277 18 0 13.9672 0 9C0 4.03277 4.03277 0 9 0ZM6.1862 14.058V7.02949H3.84957V14.058H6.1862ZM14.6103 14.058V10.0274C14.6103 7.86853 13.4577 6.86422 11.9206 6.86422C10.6811 6.86422 10.1259 7.54587 9.8151 8.02462V7.02949H7.47907C7.51004 7.68892 7.47907 14.058 7.47907 14.058H9.81506V10.1328C9.81506 9.92268 9.83018 9.71265 9.89209 9.5625C10.0607 9.14291 10.4453 8.70824 11.0907 8.70824C11.9357 8.70824 12.2742 9.353 12.2742 10.2974V14.058H14.6103ZM5.03367 3.64043C4.23422 3.64043 3.7119 4.16602 3.7119 4.8549C3.7119 5.52927 4.21833 6.06934 5.00273 6.06934H5.01782C5.83256 6.06934 6.33969 5.52927 6.33969 4.8549C6.32457 4.16602 5.8326 3.64043 5.03367 3.64043Z" fill="#0D0D0D"/>
</g>
<defs>
<clipPath id="clip0_59_357">
<rect width="18" height="18" fill="white"/>
</clipPath>
</defs>
</svg>
